<svg aria-hidden="true" style="position: absolute; width: 0; height: 0; overflow: hidden;" version="1.1" xmlns="http://www.w3.org/2000/svg" xmlns:xlink="http://www.w3.org/1999/xlink">
<defs>
<symbol id="close" viewBox="0 0 32 32">
<path d="M31.439 3.166l-3.166-3.166-12.553 12.553-12.553-12.553-3.166 3.166 12.553 12.553-12.553 12.553 3.166 3.166 12.553-12.553 12.553 12.553 3.166-3.166-12.553-12.553 12.553-12.553z"></path>
</symbol>
<symbol id="phone" viewBox="0 0 32 32">
<path d="M6 4c0-2.209 1.791-4 4-4v0h12c2.209 0 4 1.791 4 4v0 24c0 2.209-1.791 4-4 4v0h-12c-2.209 0-4-1.791-4-4v0-24zM18 26c0-1.105-0.895-2-2-2s-2 0.895-2 2v0c0 1.105 0.895 2 2 2s2-0.895 2-2v0z"></path>
</symbol>
<symbol id="mail" viewBox="0 0 32 32">
<path d="M0.1 7.11c0.42-1.794 2.006-3.11 3.9-3.11 0 0 0 0 0 0h24c0 0 0 0 0 0 1.894 0 3.48 1.316 3.894 3.083l0.005 0.027-15.9 9.718-15.9-9.718zM0 9.394v14.208l11.606-7.116-11.606-7.092zM13.522 17.66l-13.14 8.054c0.657 1.363 2.028 2.286 3.614 2.286 0.001 0 0.003 0 0.004 0h24c0 0 0.001 0 0.001 0 1.587 0 2.958-0.924 3.605-2.264l0.010-0.024-13.14-8.054-2.476 1.514-2.478-1.514zM20.394 16.488l11.606 7.114v-14.208l-11.606 7.092z"></path>
</symbol>
<symbol id="github" viewBox="0 0 32 32">
<path d="M16 0c-8.84 0-16 7.16-16 16 0 7.080 4.58 13.060 10.94 15.18 0.8 0.14 1.1-0.34 1.1-0.76 0-0.38-0.020-1.64-0.020-2.98-4.020 0.74-5.060-0.98-5.38-1.88-0.18-0.46-0.96-1.88-1.64-2.26-0.56-0.3-1.36-1.040-0.020-1.060 1.26-0.020 2.16 1.16 2.46 1.64 1.44 2.42 3.74 1.74 4.66 1.32 0.14-1.040 0.56-1.74 1.020-2.14-3.56-0.4-7.28-1.78-7.28-7.9 0-1.74 0.62-3.18 1.64-4.3-0.16-0.4-0.72-2.040 0.16-4.24 0 0 1.34-0.42 4.4 1.64 1.28-0.36 2.64-0.54 4-0.54s2.72 0.18 4 0.54c3.060-2.080 4.4-1.64 4.4-1.64 0.88 2.2 0.32 3.84 0.16 4.24 1.020 1.12 1.64 2.54 1.64 4.3 0 6.14-3.74 7.5-7.3 7.9 0.58 0.5 1.080 1.46 1.080 2.96 0 2.14-0.020 3.86-0.020 4.4 0 0.42 0.3 0.92 1.1 0.76 6.39-2.203 10.899-8.165 10.9-15.18v-0c0-8.84-7.16-16-16-16z"></path>
</symbol>
<symbol id="telegram" viewBox="0 0 32 32">
<path d="M32 16c0 8.837-7.163 16-16 16s-16-7.163-16-16v0c0-8.837 7.163-16 16-16s16 7.163 16 16v0zM16.574 11.812c-1.556 0.648-4.668 1.988-9.332 4.020-0.756 0.3-1.154 0.596-1.19 0.884-0.060 0.486 0.55 0.678 1.38 0.94l0.35 0.11c0.816 0.266 1.916 0.576 2.486 0.588 0.52 0.012 1.098-0.2 1.736-0.64 4.358-2.942 6.608-4.428 6.748-4.46 0.1-0.024 0.24-0.052 0.332 0.032 0.094 0.082 0.084 0.24 0.074 0.282-0.060 0.258-2.454 2.482-3.692 3.634-0.386 0.36-0.66 0.614-0.716 0.672-0.123 0.126-0.246 0.247-0.37 0.367l-0.006 0.005c-0.76 0.732-1.328 1.28 0.030 2.176 0.654 0.432 1.178 0.786 1.7 1.142 0.568 0.388 1.136 0.774 1.872 1.258 0.186 0.12 0.366 0.25 0.54 0.374 0.662 0.472 1.26 0.896 1.994 0.828 0.428-0.040 0.87-0.44 1.094-1.64 0.53-2.834 1.572-8.972 1.812-11.502 0.004-0.059 0.007-0.128 0.007-0.198 0-0.152-0.012-0.302-0.035-0.448l0.002 0.016c-0.020-0.174-0.104-0.326-0.227-0.433l-0.001-0.001c-0.167-0.117-0.374-0.186-0.598-0.186-0.008 0-0.016 0-0.024 0l0.001-0c-0.6 0.010-1.526 0.332-5.968 2.18z"></path>
</symbol>
<symbol id="linkedIn" viewBox="0 0 32 32">
<path d="M0 2.292c0-1.266 1.052-2.292 2.35-2.292h27.3c1.298 0 2.35 1.026 2.35 2.292v27.416c0 1.266-1.052 2.292-2.35 2.292h-27.3c-1.298 0-2.35-1.026-2.35-2.292v-27.416zM9.886 26.788v-14.45h-4.802v14.45h4.802zM7.486 10.364c1.674 0 2.716-1.108 2.716-2.496-0.030-1.418-1.040-2.496-2.684-2.496s-2.718 1.080-2.718 2.496c0 1.388 1.042 2.496 2.654 2.496h0.032zM17.302 26.788v-8.070c0-0.432 0.032-0.864 0.16-1.172 0.346-0.862 1.136-1.756 2.464-1.756 1.738 0 2.432 1.324 2.432 3.268v7.73h4.802v-8.288c0-4.44-2.368-6.504-5.528-6.504-2.548 0-3.69 1.4-4.33 2.386v0.050h-0.032c0.037-0.060 0.047-0.076 0.058-0.093l-0.026 0.043v-2.044h-4.8c0.060 1.356 0 14.45 0 14.45h4.8z"></path>
</symbol>
<symbol id="menu" viewBox="0 0 48 32">
<path d="M0 5.334v-5.334h48v5.334h-48zM0 18.666h48v-5.332h-48v5.332zM0 32h48v-5.334h-48v5.334z"></path>
</symbol>
</defs>
</svg>
